<svg xmlns="http://www.w3.org/2000/svg" viewBox="0 0 240 240" fill="none" stroke="#000" stroke-width="3" stroke-linecap="round" stroke-linejoin="round">
<path d="M24 50 v78 q0 8 8 8 h30 q8 0 8 -8 v-78 Z"/>
<path d="M24.0 72.0 L70.0 72.0"/>
<path d="M24 96 q11 -6 23 0 t23 0"/>
<path d="M78 50 v78 q0 8 8 8 h30 q8 0 8 -8 v-78 Z"/>
<path d="M78.0 72.0 L124.0 72.0"/>
<path d="M78 96 q11 -6 23 0 t23 0"/>
<path d="M132 50 v78 q0 8 8 8 h30 q8 0 8 -8 v-78 Z"/>
<path d="M132.0 72.0 L178.0 72.0"/>
<path d="M132 96 q11 -6 23 0 t23 0"/>
<path d="M55.0 136.0 L55.0 160.0 L120.0 160.0 L120.0 176.0"/>
<path d="M101.0 136.0 L101.0 160.0"/>
<path d="M155.0 136.0 L155.0 160.0 L120.0 160.0"/>
<path d="M96 176 h48 v38 q0 8 -8 8 h-32 q-8 0 -8 -8 Z"/>
<path d="M120.0 176.0 L120.0 196.0"/>
<path d="M104.0 200.0 L136.0 200.0"/>
<path d="M106 205 q14 -8 28 0"/>
<circle cx="200" cy="150" r="16"/>
<path d="M190.0 150.0 L210.0 150.0"/>
<path d="M200.0 134.0 L200.0 166.0"/>
<path d="M176.0 150.0 L184.0 150.0"/>
<path d="M216.0 150.0 L224.0 150.0"/>
<path d="M54.0 50.0 L54.0 36.0 L200.0 36.0 L200.0 134.0"/>
<circle cx="200" cy="36" r="4"/>
</svg>
